{
  "accessors": [
    {
      "bufferView": 2,
      "componentType": 5126,
      "count": 31986,
      "max": [
        0.9229294061660767,
        0.39823129773139954,
        0.9765305519104004
      ],
      "min": [
        -0.9147796630859375,
        -0.9465422630310059,
        -0.7609422206878662
      ],
      "type": "VEC3"
    },
    {
      "bufferView": 2,
      "byteOffset": 383832,
      "componentType": 5126,
      "count": 31986,
      "max": [
        0.9999933838844299,
        0.9999997615814209,
        0.999961256980896
      ],
      "min": [
        -0.9999926686286926,
        -0.9985831379890442,
        -0.9999908208847046
      ],
      "type": "VEC3"
    },
    {
      "bufferView": 1,
      "componentType": 5126,
      "count": 31986,
      "max": [
        0.9945746660232544,
        0.9968658685684204
      ],
      "min": [
        5.205534034757875e-05,
        0.00010919843771262094
      ],
      "type": "VEC2"
    },
    {
      "bufferView": 1,
      "byteOffset": 255888,
      "componentType": 5126,
      "count": 31986,
      "max": [
        0.9945746660232544,
        0.9968658685684204
      ],
      "min": [
        5.205534034757875e-05,
        0.00010919843771262094
      ],
      "type": "VEC2"
    },
    {
      "bufferView": 1,
      "byteOffset": 511776,
      "componentType": 5126,
      "count": 31986,
      "max": [
        0.9945746660232544,
        0.9968658685684204
      ],
      "min": [
        5.205534034757875e-05,
        0.00010919843771262094
      ],
      "type": "VEC2"
    },
    {
      "bufferView": 0,
      "componentType": 5125,
      "count": 133425,
      "type": "SCALAR"
    }
  ],
  "asset": {
    "extras": {
      "author": "Arun XR (https://sketchfab.com/arunxr)",
      "license": "CC-BY-NC-SA-4.0 (http://creativecommons.org/licenses/by-nc-sa/4.0/)",
      "source": "https://sketchfab.com/3d-models/krishna-artifacts-506d0a8f43884c458e5a78156151ff09",
      "title": "Krishna Artifacts"
    },
    "generator": "Sketchfab-12.66.0",
    "version": "2.0"
  },
  "bufferViews": [
    {
      "buffer": 0,
      "byteLength": 533700,
      "name": "floatBufferViews",
      "target": 34963
    },
    {
      "buffer": 0,
      "byteLength": 767664,
      "byteOffset": 533700,
      "byteStride": 8,
      "name": "floatBufferViews",
      "target": 34962
    },
    {
      "buffer": 0,
      "byteLength": 767664,
      "byteOffset": 1301364,
      "byteStride": 12,
      "name": "floatBufferViews",
      "target": 34962
    }
  ],
  "buffers": [
    {
      "byteLength": 2069028,
      "uri": "scene.bin"
    }
  ],
  "extensionsUsed": [
    "KHR_materials_unlit"
  ],
  "images": [
    {
      "uri": "textures/material_0_baseColor.jpg"
    }
  ],
  "materials": [
    {
      "extensions": {
        "KHR_materials_unlit": {}
      },
      "name": "material_0",
      "pbrMetallicRoughness": {
        "baseColorTexture": {
          "index": 0
        },
        "metallicFactor": 0.0
      }
    }
  ],
  "meshes": [
    {
      "name": "Object_0",
      "primitives": [
        {
          "attributes": {
            "NORMAL": 1,
            "POSITION": 0,
            "TEXCOORD_0": 2,
            "TEXCOORD_1": 3,
            "TEXCOORD_2": 4
          },
          "indices": 5,
          "material": 0,
          "mode": 4
        }
      ]
    }
  ],
  "nodes": [
    {
      "children": [
        1
      ],
      "matrix": [
        1.0,
        0.0,
        0.0,
        0.0,
        0.0,
        2.220446049250313e-16,
        -1.0,
        0.0,
        0.0,
        1.0,
        2.220446049250313e-16,
        0.0,
        0.0,
        0.0,
        0.0,
        1.0
      ],
      "name": "Sketchfab_model"
    },
    {
      "children": [
        2
      ],
      "name": "root"
    },
    {
      "children": [
        3
      ],
      "matrix": [
        1.0,
        0.0,
        0.0,
        0.0,
        0.0,
        2.220446049250313e-16,
        1.0,
        0.0,
        0.0,
        -1.0,
        2.220446049250313e-16,
        0.0,
        0.0,
        0.0,
        0.0,
        1.0
      ],
      "name": "GLTF_SceneRootNode"
    },
    {
      "children": [
        4
      ],
      "name": "_0"
    },
    {
      "mesh": 0,
      "name": "Object_4"
    }
  ],
  "samplers": [
    {
      "magFilter": 9729,
      "minFilter": 9987,
      "wrapS": 10497,
      "wrapT": 10497
    }
  ],
  "scene": 0,
  "scenes": [
    {
      "name": "Sketchfab_Scene",
      "nodes": [
        0
      ]
    }
  ],
  "textures": [
    {
      "sampler": 0,
      "source": 0
    }
  ]
}
